<svg width="252" height="240" viewBox="0 0 252 240" fill="none" xmlns="http://www.w3.org/2000/svg">
<g filter="url(#filter0_d_23_21)">
<path d="M78.045 53.7634C74.1469 80.082 70.5736 102.177 69.9239 102.826C68.9494 103.476 65.3761 102.502 61.8028 100.227L54.6563 96.653L61.478 88.205C74.1469 71.959 66.3507 51.489 47.5098 51.489C34.8409 51.489 22.4969 58.3123 22.4969 65.1356C22.4969 72.2839 29.9682 72.9337 35.4906 66.1104C41.0129 59.2871 50.7582 59.9369 54.9811 67.4101C60.5035 78.1325 52.7072 89.5047 33.2167 98.6025C20.8726 104.451 16 108.675 16 113.224C16 120.697 20.8726 121.347 32.2421 114.849C42.962 108.675 59.5289 108.675 64.7264 114.849C67.9749 118.748 67.3252 128.495 61.8028 164.561C53.6818 217.524 53.6818 213.949 60.1786 213.949C62.7774 213.949 68.2997 207.126 72.1978 198.678C78.045 185.681 79.3444 176.259 79.994 142.467C80.6437 120.047 83.2425 86.9053 85.8412 68.3848C88.44 50.1893 90.7139 34.2681 90.7139 32.9684C90.7139 31.9937 92.9878 32.9684 95.5865 35.2429C99.8095 38.817 100.459 37.8423 100.459 29.7192C100.459 20.6214 92.6629 6 87.7903 6C86.4909 6 81.9431 27.4448 78.045 53.7634Z" fill="#12C080"/>
<path d="M217.727 67.41C214.154 70.9842 209.931 81.7066 207.657 91.7791C203.434 112.574 198.886 117.448 195.963 104.451C192.714 90.8044 185.893 78.4574 180.046 76.5078C176.472 74.8832 172.899 78.7823 167.377 89.8296C153.408 117.123 149.835 116.798 151.784 88.8548C153.084 66.1104 152.759 64.4858 146.912 64.4858C141.064 64.4858 140.09 67.4101 138.141 88.8548C136.841 102.502 136.841 114.849 137.816 116.473C142.364 123.946 155.357 119.397 166.727 106.401C176.797 94.3785 178.421 93.4037 180.37 98.9274C186.542 118.748 188.167 120.372 198.886 119.072L209.606 117.773L208.307 135.968C204.734 182.757 203.109 188.931 194.014 194.129C186.542 198.353 182.644 198.678 166.402 194.779C140.74 189.255 138.79 188.931 137.166 193.154C133.593 203.877 193.364 212.65 205.058 203.227C207.982 201.277 211.88 194.129 213.829 187.956C217.402 175.609 227.148 104.776 227.148 89.1798C227.148 83.981 229.422 77.1577 232.345 73.9085C242.74 62.5362 228.772 56.3627 217.727 67.41Z" fill="#12C080"/>
<path d="M102.083 71.6341C93.6373 76.183 87.1405 84.306 89.4144 87.5552C90.3889 89.1798 94.6119 88.2051 98.8348 85.2808C118.325 72.6088 123.523 96.0032 106.631 119.397C95.5864 134.669 95.9112 139.543 107.281 131.42C119.3 123.297 132.943 100.227 132.943 88.8549C132.943 71.3092 117.676 62.8612 102.083 71.6341Z" fill="#12C080"/>
</g>
<defs>
<filter id="filter0_d_23_21" x="0" y="0" width="252" height="240" filterUnits="userSpaceOnUse" color-interpolation-filters="sRGB">
<feFlood flood-opacity="0" result="BackgroundImageFix"/>
<feColorMatrix in="SourceAlpha" type="matrix" values="0 0 0 0 0 0 0 0 0 0 0 0 0 0 0 0 0 0 127 0" result="hardAlpha"/>
<feOffset dy="10"/>
<feGaussianBlur stdDeviation="8"/>
<feComposite in2="hardAlpha" operator="out"/>
<feColorMatrix type="matrix" values="0 0 0 0 0 0 0 0 0 0 0 0 0 0 0 0 0 0 0.5 0"/>
<feBlend mode="normal" in2="BackgroundImageFix" result="effect1_dropShadow_23_21"/>
<feBlend mode="normal" in="SourceGraphic" in2="effect1_dropShadow_23_21" result="shape"/>
</filter>
</defs>
</svg>
